<?xml version="1.0" standalone="no"?><svg xmlns="http://www.w3.org/2000/svg" viewBox="0 0 1440 320"><path fill="#8a2be2" fill-opacity="1" d="M0,128L6.2,133.3C12.3,139,25,149,37,149.3C49.2,149,62,139,74,128C86.2,117,98,107,111,128C123.1,149,135,203,148,218.7C160,235,172,213,185,218.7C196.9,224,209,256,222,250.7C233.8,245,246,203,258,165.3C270.8,128,283,96,295,101.3C307.7,107,320,149,332,144C344.6,139,357,85,369,106.7C381.5,128,394,224,406,256C418.5,288,431,256,443,240C455.4,224,468,224,480,208C492.3,192,505,160,517,170.7C529.2,181,542,235,554,224C566.2,213,578,139,591,117.3C603.1,96,615,128,628,160C640,192,652,224,665,224C676.9,224,689,192,702,186.7C713.8,181,726,203,738,208C750.8,213,763,203,775,197.3C787.7,192,800,192,812,160C824.6,128,837,64,849,48C861.5,32,874,64,886,101.3C898.5,139,911,181,923,213.3C935.4,245,948,267,960,266.7C972.3,267,985,245,997,224C1009.2,203,1022,181,1034,176C1046.2,171,1058,181,1071,197.3C1083.1,213,1095,235,1108,213.3C1120,192,1132,128,1145,101.3C1156.9,75,1169,85,1182,101.3C1193.8,117,1206,139,1218,128C1230.8,117,1243,75,1255,69.3C1267.7,64,1280,96,1292,101.3C1304.6,107,1317,85,1329,90.7C1341.5,96,1354,128,1366,133.3C1378.5,139,1391,117,1403,133.3C1415.4,149,1428,203,1434,229.3L1440,256L1440,0L1433.8,0C1427.7,0,1415,0,1403,0C1390.8,0,1378,0,1366,0C1353.8,0,1342,0,1329,0C1316.9,0,1305,0,1292,0C1280,0,1268,0,1255,0C1243.1,0,1231,0,1218,0C1206.2,0,1194,0,1182,0C1169.2,0,1157,0,1145,0C1132.3,0,1120,0,1108,0C1095.4,0,1083,0,1071,0C1058.5,0,1046,0,1034,0C1021.5,0,1009,0,997,0C984.6,0,972,0,960,0C947.7,0,935,0,923,0C910.8,0,898,0,886,0C873.8,0,862,0,849,0C836.9,0,825,0,812,0C800,0,788,0,775,0C763.1,0,751,0,738,0C726.2,0,714,0,702,0C689.2,0,677,0,665,0C652.3,0,640,0,628,0C615.4,0,603,0,591,0C578.5,0,566,0,554,0C541.5,0,529,0,517,0C504.6,0,492,0,480,0C467.7,0,455,0,443,0C430.8,0,418,0,406,0C393.8,0,382,0,369,0C356.9,0,345,0,332,0C320,0,308,0,295,0C283.1,0,271,0,258,0C246.2,0,234,0,222,0C209.2,0,197,0,185,0C172.3,0,160,0,148,0C135.4,0,123,0,111,0C98.5,0,86,0,74,0C61.5,0,49,0,37,0C24.6,0,12,0,6,0L0,0Z"></path></svg>